<svg width="275" height="226" viewBox="0 0 275 226" fill="none" xmlns="http://www.w3.org/2000/svg">
<mask id="path-1-outside-1_35_3294" maskUnits="userSpaceOnUse" x="-0.550781" y="-0.550537" width="276" height="227" fill="black">
<rect fill="white" x="-0.550781" y="-0.550537" width="276" height="227"/>
<path d="M221.988 2.44946C227.095 2.44955 234.531 4.10532 240.944 11.9924L241.033 12.0979C241.435 12.579 241.792 13.0469 242.154 13.5588C260.714 40.0146 258.384 72.9369 250.011 94.926C250.006 94.9436 249.998 94.9612 249.993 94.9788C246.805 103.293 241.458 107.326 236.705 109.268C252 115.208 265.498 131.579 271.051 151.276C274.229 161.348 271.664 171.42 264.249 177.736C263.949 177.992 263.64 178.239 263.326 178.482L263.291 178.508C262.753 178.919 262.201 179.303 261.627 179.66C257.942 181.969 253.674 183.192 249.282 183.192C243.999 183.192 240.031 181.435 238.336 180.689L238.23 180.645C237.922 180.512 237.613 180.37 237.312 180.225C234.951 179.086 232.951 178.482 231.525 178.482C228.948 178.482 224.834 181.276 218.589 187.27L218.567 187.291C211.311 194.569 203.084 202.819 192.773 209.727C179.426 218.673 165.382 223.206 151.028 223.206H151.023L151.015 223.21C149.377 223.21 147.713 223.153 146.062 223.033C134.057 222.561 121.783 219.41 112.307 214.357C112.201 214.299 112.09 214.242 111.984 214.18C98.5447 206.721 89.7835 197.257 82.748 189.653C74.424 180.658 72.2387 178.958 68.9902 178.958C67.5822 178.958 65.071 179.233 61.0947 180.526C60.936 180.579 60.7725 180.627 60.6094 180.675C59.8238 180.913 59.1128 181.104 58.4199 181.267C56.3896 181.761 54.3457 182.013 52.333 182.013C44.7461 182.013 37.6224 178.376 33.2793 172.285C30.8776 168.915 28.5749 163.825 28.9814 156.973C28.6092 156.26 28.2519 155.508 27.916 154.714C27.7704 154.37 27.6339 154.016 27.5059 153.663C26.4643 150.799 25.3654 148.849 24.1562 147.697C23.6266 147.193 22.7123 146.456 20.7129 145.697C20.4792 145.608 20.2498 145.516 20.0205 145.423L19.4023 145.167C18.4931 144.788 17.553 144.399 16.582 143.945C3.46902 137.805 2.44924 126.232 2.44922 122.829C2.44922 119.426 3.46894 107.854 16.5732 101.714C17.6325 101.215 18.6657 100.791 19.7559 100.341L20.0869 100.204C20.2942 100.121 20.5017 100.037 20.709 99.9573C23.4321 98.9245 25.379 97.8124 27.502 91.9866C27.652 91.5762 27.8152 91.1655 27.9873 90.7639C32.5995 80.136 40.6728 77.0011 45.7939 76.1135C43.8891 64.3935 43.9634 50.7503 47.8135 36.8147C47.8444 36.6955 47.8797 36.5759 47.915 36.4612C49.5702 30.8338 51.8881 25.2153 54.6113 20.2102C54.6951 20.0558 54.779 19.9056 54.8672 19.7512C54.9907 19.5394 55.1186 19.3142 55.251 19.0803C56.1425 17.5135 57.361 15.3644 58.9277 13.2415C65.8484 3.87123 74.4593 2.47195 78.9746 2.47192C81.6405 2.47192 84.2625 2.92602 86.7695 3.82642C86.8576 3.85725 86.9412 3.88836 87.0293 3.91919C94.5855 6.73952 98.1303 12.345 99.834 15.0374C100.077 15.4213 100.306 15.783 100.461 15.9993C100.479 16.0258 100.501 16.0568 100.519 16.0833C102.893 19.4465 106.993 22.3022 111.495 23.7278C113.313 24.2618 115.035 24.4914 117.232 24.4915C118.053 24.4915 118.941 24.461 119.952 24.3948C119.978 24.3948 120.005 24.3943 120.031 24.3899C122.971 24.2133 126.082 23.9531 129.375 23.675C136.362 23.088 143.591 22.4837 151.104 22.4836C154.255 22.4836 157.164 22.5896 159.988 22.8059C164.305 23.0222 168.308 23.3929 171.848 23.7239C176.085 24.1211 179.744 24.4612 182.939 24.4612C187.715 24.4612 191.22 23.8032 196.053 20.3342C197.575 19.2485 198.878 18.0208 199.854 16.7629C199.942 16.6527 200.03 16.5382 200.118 16.428C200.295 16.172 200.626 15.6639 200.855 15.3108C202.568 12.667 204.916 9.0481 209.325 6.20142C209.431 6.13082 209.537 6.06448 209.647 5.99829C213.377 3.67675 217.645 2.44946 221.988 2.44946Z"/>
</mask>
<path d="M221.988 2.44946C227.095 2.44955 234.531 4.10532 240.944 11.9924L241.033 12.0979C241.435 12.579 241.792 13.0469 242.154 13.5588C260.714 40.0146 258.384 72.9369 250.011 94.926C250.006 94.9436 249.998 94.9612 249.993 94.9788C246.805 103.293 241.458 107.326 236.705 109.268C252 115.208 265.498 131.579 271.051 151.276C274.229 161.348 271.664 171.42 264.249 177.736C263.949 177.992 263.64 178.239 263.326 178.482L263.291 178.508C262.753 178.919 262.201 179.303 261.627 179.66C257.942 181.969 253.674 183.192 249.282 183.192C243.999 183.192 240.031 181.435 238.336 180.689L238.23 180.645C237.922 180.512 237.613 180.37 237.312 180.225C234.951 179.086 232.951 178.482 231.525 178.482C228.948 178.482 224.834 181.276 218.589 187.27L218.567 187.291C211.311 194.569 203.084 202.819 192.773 209.727C179.426 218.673 165.382 223.206 151.028 223.206H151.023L151.015 223.21C149.377 223.21 147.713 223.153 146.062 223.033C134.057 222.561 121.783 219.41 112.307 214.357C112.201 214.299 112.09 214.242 111.984 214.18C98.5447 206.721 89.7835 197.257 82.748 189.653C74.424 180.658 72.2387 178.958 68.9902 178.958C67.5822 178.958 65.071 179.233 61.0947 180.526C60.936 180.579 60.7725 180.627 60.6094 180.675C59.8238 180.913 59.1128 181.104 58.4199 181.267C56.3896 181.761 54.3457 182.013 52.333 182.013C44.7461 182.013 37.6224 178.376 33.2793 172.285C30.8776 168.915 28.5749 163.825 28.9814 156.973C28.6092 156.26 28.2519 155.508 27.916 154.714C27.7704 154.37 27.6339 154.016 27.5059 153.663C26.4643 150.799 25.3654 148.849 24.1562 147.697C23.6266 147.193 22.7123 146.456 20.7129 145.697C20.4792 145.608 20.2498 145.516 20.0205 145.423L19.4023 145.167C18.4931 144.788 17.553 144.399 16.582 143.945C3.46902 137.805 2.44924 126.232 2.44922 122.829C2.44922 119.426 3.46894 107.854 16.5732 101.714C17.6325 101.215 18.6657 100.791 19.7559 100.341L20.0869 100.204C20.2942 100.121 20.5017 100.037 20.709 99.9573C23.4321 98.9245 25.379 97.8124 27.502 91.9866C27.652 91.5762 27.8152 91.1655 27.9873 90.7639C32.5995 80.136 40.6728 77.0011 45.7939 76.1135C43.8891 64.3935 43.9634 50.7503 47.8135 36.8147C47.8444 36.6955 47.8797 36.5759 47.915 36.4612C49.5702 30.8338 51.8881 25.2153 54.6113 20.2102C54.6951 20.0558 54.779 19.9056 54.8672 19.7512C54.9907 19.5394 55.1186 19.3142 55.251 19.0803C56.1425 17.5135 57.361 15.3644 58.9277 13.2415C65.8484 3.87123 74.4593 2.47195 78.9746 2.47192C81.6405 2.47192 84.2625 2.92602 86.7695 3.82642C86.8576 3.85725 86.9412 3.88836 87.0293 3.91919C94.5855 6.73952 98.1303 12.345 99.834 15.0374C100.077 15.4213 100.306 15.783 100.461 15.9993C100.479 16.0258 100.501 16.0568 100.519 16.0833C102.893 19.4465 106.993 22.3022 111.495 23.7278C113.313 24.2618 115.035 24.4914 117.232 24.4915C118.053 24.4915 118.941 24.461 119.952 24.3948C119.978 24.3948 120.005 24.3943 120.031 24.3899C122.971 24.2133 126.082 23.9531 129.375 23.675C136.362 23.088 143.591 22.4837 151.104 22.4836C154.255 22.4836 157.164 22.5896 159.988 22.8059C164.305 23.0222 168.308 23.3929 171.848 23.7239C176.085 24.1211 179.744 24.4612 182.939 24.4612C187.715 24.4612 191.22 23.8032 196.053 20.3342C197.575 19.2485 198.878 18.0208 199.854 16.7629C199.942 16.6527 200.03 16.5382 200.118 16.428C200.295 16.172 200.626 15.6639 200.855 15.3108C202.568 12.667 204.916 9.0481 209.325 6.20142C209.431 6.13082 209.537 6.06448 209.647 5.99829C213.377 3.67675 217.645 2.44946 221.988 2.44946Z" fill="#141218"/>
<path d="M221.988 2.44946L221.988 4.29153e-06H221.988V2.44946ZM240.944 11.9924L239.044 13.5377L239.057 13.5544L239.071 13.5707L240.944 11.9924ZM241.033 12.0979L242.914 10.5281L242.906 10.5196L241.033 12.0979ZM242.154 13.5588L244.16 12.1521L244.154 12.1449L242.154 13.5588ZM250.011 94.926L247.722 94.0544L247.671 94.1881L247.636 94.3268L250.011 94.926ZM249.993 94.9788L252.28 95.8557L252.333 95.717L252.369 95.5728L249.993 94.9788ZM236.705 109.268L235.779 107L230.087 109.325L235.818 111.551L236.705 109.268ZM271.051 151.276L268.693 151.94L268.703 151.977L268.715 152.013L271.051 151.276ZM264.249 177.736L262.661 175.871L262.659 175.872L264.249 177.736ZM263.326 178.482L264.796 180.441L264.811 180.43L264.826 180.418L263.326 178.482ZM263.291 178.508L261.821 176.548L261.814 176.554L261.806 176.56L263.291 178.508ZM261.627 179.66L260.332 177.581L260.327 177.585L261.627 179.66ZM249.282 183.192V185.641H249.282L249.282 183.192ZM238.336 180.689L239.323 178.447L239.3 178.437L239.278 178.428L238.336 180.689ZM238.23 180.645L237.266 182.896L237.277 182.901L237.288 182.906L238.23 180.645ZM237.312 180.225L238.382 178.021L238.376 178.019L237.312 180.225ZM231.525 178.482V176.032H231.525L231.525 178.482ZM218.589 187.27L216.893 185.503L216.875 185.52L216.857 185.538L218.589 187.27ZM218.567 187.291L216.835 185.559L216.833 185.562L218.567 187.291ZM192.773 209.727L191.41 207.692L191.41 207.692L192.773 209.727ZM151.028 223.206V225.656V225.656V223.206ZM151.023 223.206V220.757H150.504L150.029 220.968L151.023 223.206ZM151.015 223.21L151.015 225.66H151.534L152.009 225.449L151.015 223.21ZM146.062 223.033L146.239 220.59L146.199 220.587L146.159 220.586L146.062 223.033ZM112.307 214.357L111.14 216.51L111.147 216.514L111.154 216.518L112.307 214.357ZM111.984 214.18L113.219 212.064L113.196 212.051L113.173 212.038L111.984 214.18ZM82.748 189.653L84.5461 187.989L84.5458 187.989L82.748 189.653ZM68.9902 178.958V176.509H68.9902L68.9902 178.958ZM61.0947 180.526L60.3372 178.196L60.3287 178.199L60.3201 178.202L61.0947 180.526ZM60.6094 180.675L59.9113 178.327L59.8983 178.331L60.6094 180.675ZM58.4199 181.267L57.858 178.883L57.8492 178.885L57.8405 178.887L58.4199 181.267ZM52.333 182.013L52.333 184.462H52.333V182.013ZM33.2793 172.285L31.2844 173.707L31.2849 173.708L33.2793 172.285ZM28.9814 156.973L31.4266 157.118L31.4668 156.441L31.153 155.84L28.9814 156.973ZM27.916 154.714L25.6601 155.669L25.6602 155.669L27.916 154.714ZM27.5059 153.663L29.8087 152.829L29.8078 152.826L27.5059 153.663ZM24.1562 147.697L25.8458 145.923L25.8433 145.921L24.1562 147.697ZM20.7129 145.697L21.5824 143.407L21.5777 143.405L20.7129 145.697ZM20.0205 145.423L19.0837 147.686L19.0935 147.69L19.1033 147.694L20.0205 145.423ZM19.4023 145.167L18.4587 147.428L18.4656 147.43L19.4023 145.167ZM16.582 143.945L15.5434 146.163L15.5434 146.163L16.582 143.945ZM2.44922 122.829H-0.000239849V122.829L2.44922 122.829ZM16.5732 101.714L17.6124 103.932L17.6167 103.93L16.5732 101.714ZM19.7559 100.341L20.6908 102.605L20.6908 102.605L19.7559 100.341ZM20.0869 100.204L19.1689 97.9334L19.1604 97.9369L19.1519 97.9404L20.0869 100.204ZM20.709 99.9573L19.8404 97.667L19.8329 97.6698L20.709 99.9573ZM27.502 91.9866L25.2014 91.1455L25.2005 91.1479L27.502 91.9866ZM27.9873 90.7639L25.7403 89.7888L25.7359 89.799L27.9873 90.7639ZM45.7939 76.1135L46.2122 78.527L48.6005 78.1131L48.2117 75.7206L45.7939 76.1135ZM47.8135 36.8147L50.1745 37.467L50.1797 37.4482L50.1845 37.4294L47.8135 36.8147ZM47.915 36.4612L50.2562 37.1815L50.2607 37.167L50.265 37.1523L47.915 36.4612ZM54.6113 20.2102L56.7629 21.3809L56.764 21.3789L54.6113 20.2102ZM54.8672 19.7512L52.7514 18.517L52.7459 18.5265L52.7405 18.5359L54.8672 19.7512ZM55.251 19.0803L53.122 17.8689L53.1193 17.8737L55.251 19.0803ZM58.9277 13.2415L56.9574 11.7862L56.9569 11.7869L58.9277 13.2415ZM78.9746 2.47192V0.0224652H78.9746L78.9746 2.47192ZM86.7695 3.82642L85.9416 6.1317L85.9509 6.13506L85.9603 6.13835L86.7695 3.82642ZM87.0293 3.91919L87.8858 1.62437L87.8623 1.61559L87.8386 1.60729L87.0293 3.91919ZM99.834 15.0374L101.904 13.7285L101.904 13.7276L99.834 15.0374ZM100.461 15.9993L102.499 14.6406L102.477 14.6077L102.454 14.5756L100.461 15.9993ZM100.519 16.0833L98.4805 17.442L98.4987 17.4692L98.5176 17.496L100.519 16.0833ZM111.495 23.7278L110.756 26.063L110.78 26.0707L110.805 26.078L111.495 23.7278ZM117.232 24.4915L117.232 26.9409H117.232V24.4915ZM119.952 24.3948L119.952 21.9453H119.872L119.792 21.9506L119.952 24.3948ZM120.031 24.3899L119.884 21.9448L119.756 21.9526L119.629 21.9738L120.031 24.3899ZM129.375 23.675L129.17 21.2342L129.169 21.2343L129.375 23.675ZM151.104 22.4836V20.0342V20.0342V22.4836ZM159.988 22.8059L159.801 25.2482L159.833 25.2507L159.866 25.2523L159.988 22.8059ZM171.848 23.7239L172.076 21.2851L172.076 21.2851L171.848 23.7239ZM182.939 24.4612L182.939 26.9106H182.939V24.4612ZM196.053 20.3342L194.631 18.3398L194.624 18.3443L196.053 20.3342ZM199.854 16.7629L197.941 15.2329L197.929 15.2473L197.918 15.2619L199.854 16.7629ZM200.118 16.428L202.031 17.9581L202.085 17.8902L202.135 17.8186L200.118 16.428ZM200.855 15.3108L202.909 16.6457L202.911 16.6425L200.855 15.3108ZM209.325 6.20142L210.654 8.25923L210.669 8.24948L210.684 8.23951L209.325 6.20142ZM209.647 5.99829L210.908 8.09868L210.925 8.08838L210.942 8.07779L209.647 5.99829ZM221.988 2.44946L221.988 4.89892C226.519 4.89899 233.189 6.33727 239.044 13.5377L240.944 11.9924L242.845 10.4471C235.874 1.87337 227.671 9.58443e-05 221.988 4.29153e-06L221.988 2.44946ZM240.944 11.9924L239.071 13.5707L239.16 13.6762L241.033 12.0979L242.906 10.5196L242.818 10.4141L240.944 11.9924ZM241.033 12.0979L239.153 13.6677C239.51 14.0949 239.827 14.5104 240.154 14.9728L242.154 13.5588L244.154 12.1449C243.757 11.5833 243.36 11.0631 242.914 10.5281L241.033 12.0979ZM242.154 13.5588L240.149 14.9656C258.093 40.5436 255.912 72.545 247.722 94.0544L250.011 94.926L252.3 95.7977C260.855 73.3288 263.335 39.4857 244.16 12.1521L242.154 13.5588ZM250.011 94.926L247.636 94.3268C247.647 94.2836 247.657 94.2463 247.667 94.216C247.676 94.1858 247.684 94.1606 247.691 94.1421C247.697 94.1237 247.702 94.1094 247.705 94.1019C247.707 94.0953 247.709 94.0898 247.708 94.0935C247.708 94.0946 247.704 94.1047 247.7 94.1162C247.695 94.1286 247.688 94.1476 247.68 94.1708C247.672 94.1941 247.662 94.2242 247.652 94.2592C247.641 94.2944 247.629 94.3366 247.617 94.3847L249.993 94.9788L252.369 95.5728C252.359 95.6165 252.348 95.6543 252.338 95.6851C252.329 95.7158 252.321 95.7414 252.314 95.7604C252.308 95.7792 252.302 95.7938 252.299 95.8017C252.297 95.8089 252.295 95.8145 252.296 95.8113C252.296 95.8106 252.3 95.8007 252.304 95.7897C252.308 95.7778 252.315 95.7591 252.323 95.7364C252.331 95.7135 252.341 95.6839 252.351 95.6492C252.362 95.6145 252.374 95.5728 252.386 95.5252L250.011 94.926ZM249.993 94.9788L247.706 94.1019C244.784 101.722 239.97 105.288 235.779 107L236.705 109.268L237.631 111.535C242.945 109.365 248.826 104.865 252.28 95.8557L249.993 94.9788ZM236.705 109.268L235.818 111.551C250.232 117.149 263.296 132.795 268.693 151.94L271.051 151.276L273.408 150.611C267.7 130.362 253.769 113.267 237.592 106.985L236.705 109.268ZM271.051 151.276L268.715 152.013C271.631 161.256 269.242 170.265 262.661 175.871L264.249 177.736L265.837 179.6C274.086 172.574 276.826 161.439 273.387 150.539L271.051 151.276ZM264.249 177.736L262.659 175.872C262.398 176.095 262.121 176.317 261.826 176.545L263.326 178.482L264.826 180.418C265.158 180.161 265.5 179.888 265.839 179.599L264.249 177.736ZM263.326 178.482L261.857 176.522L261.821 176.548L263.291 178.508L264.761 180.468L264.796 180.441L263.326 178.482ZM263.291 178.508L261.806 176.56C261.323 176.928 260.835 177.268 260.332 177.581L261.627 179.66L262.922 181.739C263.567 181.338 264.182 180.909 264.776 180.456L263.291 178.508ZM261.627 179.66L260.327 177.585C257.034 179.647 253.217 180.742 249.282 180.742L249.282 183.192L249.282 185.641C254.13 185.641 258.849 184.291 262.927 181.736L261.627 179.66ZM249.282 183.192V180.742C244.535 180.742 240.96 179.167 239.323 178.447L238.336 180.689L237.349 182.931C239.102 183.702 243.463 185.641 249.282 185.641V183.192ZM238.336 180.689L239.278 178.428L239.173 178.384L238.23 180.645L237.288 182.906L237.394 182.95L238.336 180.689ZM238.23 180.645L239.195 178.393C238.925 178.277 238.651 178.152 238.382 178.021L237.312 180.225L236.243 182.429C236.574 182.589 236.918 182.747 237.266 182.896L238.23 180.645ZM237.312 180.225L238.376 178.019C235.919 176.834 233.514 176.032 231.525 176.032V178.482V180.931C232.389 180.931 233.983 181.339 236.249 182.431L237.312 180.225ZM231.525 178.482L231.525 176.032C229.461 176.032 227.266 177.101 225.056 178.602C222.759 180.162 220.056 182.467 216.893 185.503L218.589 187.27L220.285 189.037C223.367 186.079 225.843 183.99 227.809 182.654C229.861 181.26 231.012 180.931 231.526 180.931L231.525 178.482ZM218.589 187.27L216.857 185.538L216.835 185.559L218.567 187.291L220.299 189.023L220.321 189.002L218.589 187.27ZM218.567 187.291L216.833 185.562C209.561 192.856 201.492 200.938 191.41 207.692L192.773 209.727L194.137 211.762C204.676 204.701 213.061 196.283 220.302 189.021L218.567 187.291ZM192.773 209.727L191.41 207.692C178.416 216.402 164.84 220.757 151.028 220.757V223.206V225.656C165.924 225.656 180.436 220.945 194.137 211.761L192.773 209.727ZM151.028 223.206V220.757H151.023V223.206V225.656H151.028V223.206ZM151.023 223.206L150.029 220.968L150.02 220.972L151.015 223.21L152.009 225.449L152.018 225.445L151.023 223.206ZM151.015 223.21L151.015 220.761C149.434 220.761 147.829 220.705 146.239 220.59L146.062 223.033L145.886 225.477C147.597 225.6 149.321 225.66 151.015 225.66L151.015 223.21ZM146.062 223.033L146.159 220.586C134.478 220.126 122.572 217.055 113.459 212.195L112.307 214.357L111.154 216.518C120.994 221.766 133.637 224.996 145.966 225.481L146.062 223.033ZM112.307 214.357L113.473 212.203C113.322 212.121 113.28 212.1 113.219 212.064L111.984 214.18L110.75 216.296C110.901 216.384 111.08 216.478 111.14 216.51L112.307 214.357ZM111.984 214.18L113.173 212.038C100.109 204.788 91.5784 195.591 84.5461 187.989L82.748 189.653L80.95 191.316C87.9885 198.924 96.9803 208.654 110.796 216.322L111.984 214.18ZM82.748 189.653L84.5458 187.989C80.4114 183.521 77.6484 180.693 75.4691 178.998C73.1366 177.185 71.2632 176.509 68.9902 176.509V178.958V181.408C69.9658 181.408 70.8092 181.581 72.4624 182.866C74.2689 184.27 76.7606 186.789 80.9503 191.316L82.748 189.653ZM68.9902 178.958L68.9902 176.509C67.269 176.509 64.4986 176.843 60.3372 178.196L61.0947 180.526L61.8522 182.855C65.6435 181.622 67.8955 181.408 68.9903 181.408L68.9902 178.958ZM61.0947 180.526L60.3201 178.202C60.2083 178.239 60.0897 178.274 59.9114 178.327L60.6094 180.675L61.3074 183.023C61.4553 182.979 61.6637 182.918 61.8693 182.849L61.0947 180.526ZM60.6094 180.675L59.8983 178.331C59.1609 178.555 58.4997 178.731 57.858 178.883L58.4199 181.267L58.9818 183.651C59.7259 183.476 60.4867 183.272 61.3205 183.019L60.6094 180.675ZM58.4199 181.267L57.8405 178.887C55.9911 179.337 54.1417 179.563 52.333 179.563V182.013V184.462C54.5497 184.462 56.7881 184.185 58.9994 183.647L58.4199 181.267ZM52.333 182.013L52.333 179.563C45.5244 179.563 39.1493 176.298 35.2737 170.863L33.2793 172.285L31.2849 173.708C36.0954 180.454 43.9677 184.462 52.333 184.462L52.333 182.013ZM33.2793 172.285L35.2742 170.864C33.1276 167.851 31.0596 163.303 31.4266 157.118L28.9814 156.973L26.5363 156.828C26.0902 164.346 28.6275 169.978 31.2844 173.707L33.2793 172.285ZM28.9814 156.973L31.153 155.84C30.8099 155.182 30.481 154.49 30.1719 153.76L27.916 154.714L25.6602 155.669C26.0228 156.526 26.4085 157.337 26.8099 158.106L28.9814 156.973ZM27.916 154.714L30.1719 153.76C30.0462 153.463 29.9253 153.15 29.8087 152.829L27.5059 153.663L25.203 154.498C25.3424 154.883 25.4945 155.277 25.6601 155.669L27.916 154.714ZM27.5059 153.663L29.8078 152.826C28.7253 149.849 27.4686 147.469 25.8458 145.923L24.1562 147.697L22.4667 149.47C23.2623 150.228 24.2034 151.749 25.2039 154.5L27.5059 153.663ZM24.1562 147.697L25.8433 145.921C25.077 145.193 23.8845 144.281 21.5824 143.407L20.7129 145.697L19.8434 147.986C21.5401 148.631 22.1762 149.194 22.4692 149.472L24.1562 147.697ZM20.7129 145.697L21.5777 143.405C21.3747 143.328 21.1713 143.246 20.9377 143.152L20.0205 145.423L19.1033 147.694C19.3284 147.785 19.5837 147.888 19.848 147.988L20.7129 145.697ZM20.0205 145.423L20.9573 143.16L20.3391 142.904L19.4023 145.167L18.4656 147.43L19.0837 147.686L20.0205 145.423ZM19.4023 145.167L20.346 142.907C19.4228 142.521 18.535 142.154 17.6206 141.726L16.582 143.945L15.5434 146.163C16.5711 146.644 17.5634 147.054 18.4587 147.428L19.4023 145.167ZM16.582 143.945L17.6207 141.726C5.78301 136.184 4.8987 125.846 4.89868 122.829L2.44922 122.829L-0.000239849 122.829C-0.000216484 126.619 1.15503 139.426 15.5434 146.163L16.582 143.945ZM2.44922 122.829H4.89868C4.89868 119.812 5.78335 109.474 17.6124 103.932L16.5732 101.714L15.534 99.496C1.15453 106.233 -0.000239849 119.041 -0.000239849 122.829H2.44922ZM16.5732 101.714L17.6167 103.93C18.6123 103.461 19.588 103.06 20.6908 102.605L19.7559 100.341L18.8209 98.0771C17.7434 98.522 16.6528 98.9693 15.5298 99.498L16.5732 101.714ZM19.7559 100.341L20.6908 102.605L21.0219 102.468L20.0869 100.204L19.1519 97.9404L18.8209 98.0771L19.7559 100.341ZM20.0869 100.204L21.0049 102.475C21.2159 102.39 21.4024 102.315 21.585 102.245L20.709 99.9573L19.8329 97.6698C19.601 97.7587 19.3725 97.8511 19.1689 97.9334L20.0869 100.204ZM20.709 99.9573L21.5776 102.248C23.0398 101.693 24.6206 101.001 26.0956 99.4677C27.5258 97.9814 28.6881 95.8859 29.8034 92.8252L27.502 91.9866L25.2005 91.1479C24.1929 93.9131 23.3203 95.2866 22.5655 96.0709C21.8556 96.8087 21.1013 97.1888 19.8404 97.667L20.709 99.9573ZM27.502 91.9866L29.8025 92.8276C29.937 92.4598 30.0837 92.0905 30.2387 91.7288L27.9873 90.7639L25.7359 89.799C25.5467 90.2406 25.367 90.6925 25.2014 91.1455L27.502 91.9866ZM27.9873 90.7639L30.2343 91.739C34.4287 82.0739 41.6547 79.3168 46.2122 78.527L45.7939 76.1135L45.3757 73.7C39.6909 74.6852 30.7703 78.1981 25.7403 89.7888L27.9873 90.7639ZM45.7939 76.1135L48.2117 75.7206C46.3554 64.2989 46.431 51.0166 50.1745 37.467L47.8135 36.8147L45.4525 36.1624C41.4957 50.484 41.4229 64.4882 43.3762 76.5065L45.7939 76.1135ZM47.8135 36.8147L50.1845 37.4294C50.2022 37.3612 50.2256 37.2811 50.2562 37.1815L47.915 36.4612L45.5739 35.7408C45.5339 35.8708 45.4865 36.0298 45.4424 36.2L47.8135 36.8147ZM47.915 36.4612L50.265 37.1523C51.8723 31.6875 54.1245 26.2301 56.7629 21.3809L54.6113 20.2102L52.4597 19.0395C49.6517 24.2004 47.2681 29.9801 45.5651 35.77L47.915 36.4612ZM54.6113 20.2102L56.764 21.3789C56.8387 21.2412 56.9138 21.1066 56.9939 20.9665L54.8672 19.7512L52.7405 18.5359C52.6441 18.7046 52.5516 18.8704 52.4586 19.0416L54.6113 20.2102ZM54.8672 19.7512L56.983 20.9854C57.1155 20.7583 57.2505 20.5204 57.3826 20.2869L55.251 19.0803L53.1193 17.8737C52.9867 18.1079 52.866 18.3205 52.7514 18.517L54.8672 19.7512ZM55.251 19.0803L57.3799 20.2917C58.2767 18.7157 59.4295 16.6865 60.8986 14.696L58.9277 13.2415L56.9569 11.7869C55.2924 14.0422 54.0084 16.3113 53.122 17.8689L55.251 19.0803ZM58.9277 13.2415L60.8981 14.6967C67.2234 6.13252 74.9806 4.92141 78.9746 4.92138L78.9746 2.47192L78.9746 0.0224652C73.9381 0.0224941 64.4734 1.60993 56.9574 11.7862L58.9277 13.2415ZM78.9746 2.47192V4.92138C81.3599 4.92138 83.7018 5.32726 85.9416 6.1317L86.7695 3.82642L87.5975 1.52113C84.8233 0.524778 81.9211 0.0224652 78.9746 0.0224652V2.47192ZM86.7695 3.82642L85.9603 6.13835C85.9915 6.14927 86.0236 6.16082 86.0681 6.17689C86.1094 6.19177 86.1632 6.21119 86.22 6.23109L87.0293 3.91919L87.8386 1.60729C87.8074 1.59635 87.7753 1.58481 87.7307 1.56872C87.6894 1.55382 87.6356 1.53439 87.5787 1.51448L86.7695 3.82642ZM87.0293 3.91919L86.1728 6.21401C92.9212 8.73283 96.0994 13.7163 97.7641 16.3471L99.834 15.0374L101.904 13.7276C100.161 10.9736 96.2498 4.74621 87.8858 1.62437L87.0293 3.91919ZM99.834 15.0374L97.7636 16.3462C97.9908 16.7057 98.2634 17.137 98.4677 17.4229L100.461 15.9993L102.454 14.5756C102.349 14.429 102.163 14.1368 101.904 13.7285L99.834 15.0374ZM100.461 15.9993L98.4229 17.358C98.4364 17.3783 98.4486 17.3961 98.4572 17.4087C98.4657 17.421 98.4739 17.4328 98.4783 17.4391C98.4839 17.4472 98.4857 17.4498 98.4869 17.4515C98.4879 17.453 98.4852 17.4491 98.4805 17.442L100.519 16.0833L102.557 14.7245C102.543 14.7042 102.531 14.6865 102.522 14.6739C102.514 14.6615 102.506 14.6497 102.501 14.6434C102.496 14.6354 102.494 14.6327 102.493 14.631C102.492 14.6295 102.494 14.6334 102.499 14.6406L100.461 15.9993ZM100.519 16.0833L98.5176 17.496C101.245 21.3588 105.822 24.5006 110.756 26.063L111.495 23.7278L112.235 21.3926C108.164 20.1037 104.541 17.5342 102.52 14.6705L100.519 16.0833ZM111.495 23.7278L110.805 26.078C112.879 26.6872 114.837 26.9409 117.232 26.9409L117.232 24.4915L117.232 22.042C115.233 22.042 113.748 21.8364 112.185 21.3776L111.495 23.7278ZM117.232 24.4915V26.9409C118.115 26.9409 119.057 26.9081 120.112 26.839L119.952 24.3948L119.792 21.9506C118.826 22.0138 117.992 22.042 117.232 22.042V24.4915ZM119.952 24.3948L119.952 26.8442C119.99 26.8442 120.192 26.8464 120.434 26.806L120.031 24.3899L119.629 21.9738C119.731 21.9567 119.814 21.9504 119.867 21.9477C119.894 21.9463 119.915 21.9458 119.929 21.9455C119.943 21.9453 119.952 21.9453 119.952 21.9453L119.952 24.3948ZM120.031 24.3899L120.178 26.8349C123.152 26.6563 126.293 26.3935 129.581 26.1158L129.375 23.675L129.169 21.2343C125.872 21.5127 122.789 21.7704 119.884 21.9448L120.031 24.3899ZM129.375 23.675L129.58 26.1159C136.579 25.5278 143.71 24.9331 151.104 24.9331V22.4836V20.0342C143.473 20.0342 136.144 20.6482 129.17 21.2342L129.375 23.675ZM151.104 22.4836V24.9331C154.199 24.9331 157.045 25.0372 159.801 25.2482L159.988 22.8059L160.175 20.3636C157.282 20.1421 154.311 20.0342 151.104 20.0342V22.4836ZM159.988 22.8059L159.866 25.2523C164.123 25.4656 168.078 25.8315 171.62 26.1627L171.848 23.7239L172.076 21.2851C168.538 20.9542 164.487 20.5787 160.111 20.3595L159.988 22.8059ZM171.848 23.7239L171.619 26.1626C175.823 26.5568 179.606 26.9106 182.939 26.9106L182.939 24.4612L182.939 22.0117C179.882 22.0117 176.346 21.6854 172.076 21.2851L171.848 23.7239ZM182.939 24.4612V26.9106C185.436 26.9106 187.763 26.7405 190.152 26.0524C192.554 25.361 194.889 24.185 197.481 22.3241L196.053 20.3342L194.624 18.3443C192.384 19.9524 190.55 20.8399 188.797 21.3448C187.032 21.8529 185.219 22.0117 182.939 22.0117V24.4612ZM196.053 20.3342L197.475 22.3286C199.162 21.1254 200.647 19.7373 201.789 18.2639L199.854 16.7629L197.918 15.2619C197.109 16.3044 195.989 17.3715 194.631 18.3399L196.053 20.3342ZM199.854 16.7629L201.766 18.293C201.818 18.2278 201.869 18.1629 201.912 18.1082C201.958 18.0505 201.995 18.0031 202.031 17.9581L200.118 16.428L198.205 14.8978C198.153 14.9631 198.102 15.028 198.059 15.0827C198.014 15.1404 197.977 15.1878 197.941 15.2329L199.854 16.7629ZM200.118 16.428L202.135 17.8186C202.335 17.5285 202.687 16.9872 202.909 16.6457L200.855 15.3108L198.802 13.9759C198.565 14.3406 198.255 14.8155 198.102 15.0373L200.118 16.428ZM200.855 15.3108L202.911 16.6425C204.612 14.0171 206.721 10.7983 210.654 8.25923L209.325 6.20142L207.997 4.1436C203.111 7.29787 200.524 11.317 198.8 13.9791L200.855 15.3108ZM209.325 6.20142L210.684 8.23951C210.751 8.19498 210.823 8.14958 210.908 8.09868L209.647 5.99829L208.387 3.8979C208.251 3.97938 208.112 4.06665 207.967 4.16332L209.325 6.20142ZM209.647 5.99829L210.942 8.07779C214.288 5.99514 218.108 4.89892 221.988 4.89892V2.44946V4.29153e-06C217.182 4.29153e-06 212.466 1.35836 208.353 3.9188L209.647 5.99829Z" fill="white" mask="url(#path-1-outside-1_35_3294)"/>
<path d="M229.38 87.087C228.921 88.2831 228.405 89.6867 226.918 88.5611L226.887 88.5435C225.377 87.4621 223.338 85.3789 221.511 83.9885C218.717 81.7331 215.588 79.8397 212.352 78.2904C178.411 62.9351 121.801 63.1779 88.4946 78.3037C83.975 80.2766 78.4005 84.5094 75.3815 87.4401C73.925 88.7377 73.0952 89.3115 72.4994 88.8745C68.6771 81.049 63.5439 62.7497 69.0875 42.6894C70.3984 38.236 72.208 34.0429 73.9956 30.7591C75.5227 28.1065 77.6413 23.9973 79.3141 24.5976C80.2013 24.9286 80.9649 26.6765 82.4876 28.8127C87.8591 36.4219 96.1833 42.0759 105.037 44.8345C110.647 46.5205 115.727 46.7853 121.368 46.4234C133.183 45.7084 146.425 43.8546 158.589 44.8389C178.071 45.7614 191.767 50.5723 208.914 38.2801C212.092 36.0115 214.948 33.3235 217.296 30.2957C218.796 28.4949 220.491 25.2729 221.303 24.7477C222.46 24.0282 223.245 25.2464 224.084 26.2483C238.539 46.8515 234.752 72.9807 229.38 87.087Z" fill="#17CE96"/>
<path d="M249.895 160.964C249.141 161.436 247.817 160.739 246.903 160.35C228.136 151.284 216.055 159.061 203.119 171.521C189.145 185.535 171.932 202.912 147.281 200.992C139.049 200.718 129.736 198.639 122.697 194.883C93.4337 178.641 90.7546 147.656 54.2664 159.534C53.9265 159.635 53.5911 159.728 53.2777 159.798C50.0778 160.646 50.9738 157.481 51.6049 155.654C56.4556 140.943 66.3467 130.346 74.0575 129.565C75.5361 129.481 76.4585 130.196 77.5973 131.44C80.3956 134.879 83.5867 137.995 87.356 140.396C101.237 149.66 121.236 149.356 129.45 132.787C130.319 131.123 131.047 129.52 131.859 127.901C133.51 124.656 135.289 121.337 137.513 118.402C141.049 113.481 146.765 109.99 152.975 111.248C162.985 113.375 166.772 124.1 171.234 132.164C181.408 154.431 210.587 148.336 223.638 131.039C224.848 129.693 225.823 129.017 227.346 129.384C235.361 131.657 245.773 142.501 249.917 157.671C250.253 158.638 250.553 160.416 249.935 160.946L249.9 160.973L249.895 160.964Z" fill="#17CE96"/>
<path d="M74.5426 122.82V122.838C74.5382 123.222 73.9115 123.606 72.786 124.105C71.5457 124.643 69.8685 125.301 68.4693 125.928C50.0642 133.59 51.4589 153.725 48.2369 146.112C46.1051 140.259 43.3068 135.457 39.3477 131.696C36.4346 128.925 32.8948 126.718 28.5252 125.063C27.5012 124.634 26.6141 124.277 25.9476 123.964C25.0207 123.531 24.5176 123.178 24.5176 122.829C24.5176 122.481 25.0207 122.127 25.9476 121.695C26.6141 121.382 27.5012 121.02 28.5252 120.596C38.8401 116.69 44.5382 109.69 48.2369 99.5469C50.7262 93.8091 50.3334 103.753 58.1721 112.439C61.0058 115.578 64.9163 118.557 70.4246 120.565C71.7002 121.187 74.2822 121.863 74.5426 122.82Z" fill="#EDEDED"/>
<path d="M159.26 169.787C159.671 171.702 161.688 172.682 163.378 173.393C166.018 174.457 169.094 175.348 171.292 176.447C172.007 176.822 173.914 177.771 172.532 178.402C169.416 179.369 163.674 177.789 160.094 176.818C154.065 175.163 148.058 174.911 142.078 176.399C138.141 177.299 133.665 178.861 129.71 178.689C126.961 178.614 126.404 177.679 129.534 176.253C131.692 175.216 135.488 174.117 137.818 173.04C141.009 171.671 142.201 169.2 140.056 166.344C138.242 163.696 133.912 160.244 131.118 157.265C125.288 151.196 118.416 144.037 130.562 142.241C139.39 141.009 148.411 140.533 157.3 141.04C174.028 142.307 184.899 142.254 168.383 158.205C165.572 161.379 158.792 165.837 159.251 169.734L159.26 169.791V169.787Z" fill="#141218"/>
</svg>